<svg id="Layer_1" data-name="Layer 1" xmlns="http://www.w3.org/2000/svg" viewBox="0 0 1221.93 331.53"><path d="M83.55,343.07V130.67h42.56v212.4Zm26.5-90.42V224.31H278.41v28.34Zm145.82,90.42V130.67h42.56v212.4Z" transform="translate(-76.55 -120.47)" style="stroke:#000;stroke-miterlimit:10;stroke-width:14px"/><path d="M416.1,130.67v212.4H373.54V130.67Z" transform="translate(-76.55 -120.47)" style="stroke:#000;stroke-miterlimit:10;stroke-width:14px"/><path d="M620.13,270.91l89.08-140.24h39.85v212.4H707.54V184l2.09,9.35L634.94,313.56H605.32l-74.69-117.3L532.72,184V343.07H491.2V130.67h39.85Z" transform="translate(-76.55 -120.47)" style="stroke:#000;stroke-miterlimit:10;stroke-width:14px"/><path d="M790.79,343.07l111.82-212.4h36.3l111.82,212.4h-45.9L920.76,171.72,836.68,343.07Zm51.53-46.6V268.13h159.59v28.34Z" transform="translate(-76.55 -120.47)" style="stroke:#000;stroke-miterlimit:10;stroke-width:14px"/><path d="M1096.63,343.07V130.67h42.56v212.4Zm21.28,0V314.73h173.57v28.34Z" transform="translate(-76.55 -120.47)" style="stroke:#000;stroke-miterlimit:10;stroke-width:14px"/><text transform="translate(494.45 270.22) scale(0.53 1)" style="font-size:147.0457000732422px;fill:#c12525;stroke:#c12525;stroke-miterlimit:10;stroke-width:2px;font-family:RageItalic, Rage Italic">GOLE-THANGBALE</text></svg>