<svg id="Layer_1" data-name="Layer 1" xmlns="http://www.w3.org/2000/svg" viewBox="0 0 1172.32 220.33"><path d="M96.18,238.79h21V301H280.84v-62.2h21V381.54h-21V311.19H117.22v70.35h-21Z" transform="translate(-82.18 -224.79)" style="fill:#7f1c1c;stroke:#7f1c1c;stroke-miterlimit:10;stroke-width:28px"/><path d="M403.18,238.79V381.54h-21V238.79Z" transform="translate(-82.18 -224.79)" style="fill:#7f1c1c;stroke:#7f1c1c;stroke-miterlimit:10;stroke-width:28px"/><path d="M719.52,315.88c0-27.94.39-54.65,1.56-68.93h-1.17C709,266.12,653.68,336.47,619,381.54H598.36c-26.1-34.87-83.37-113.18-95.84-134.79h-.78c1.95,16.31,2.73,49.55,2.73,74v60.77h-21V238.79H515c37.4,48.94,84.54,113,94.67,129.08h.78c6.23-10.4,60.77-81.56,98.95-129.08h31.17V381.54h-21Z" transform="translate(-82.18 -224.79)" style="fill:#7f1c1c;stroke:#7f1c1c;stroke-miterlimit:10;stroke-width:28px"/><path d="M845,332.19l-34.68,49.35H788.87L889,238.79h24.93l104.41,142.75h-23L959.9,332.19ZM952.88,322c-30.38-42.41-46-62.8-51.42-72.39h-.39c-6.62,10.81-24.16,36.1-48.7,72.39Z" transform="translate(-82.18 -224.79)" style="fill:#7f1c1c;stroke:#7f1c1c;stroke-miterlimit:10;stroke-width:28px"/><path d="M1066.64,238.79h21V371.34h146.49l-3.9,10.2H1066.64Z" transform="translate(-82.18 -224.79)" style="fill:#7f1c1c;stroke:#7f1c1c;stroke-miterlimit:10;stroke-width:28px"/><text transform="translate(553.82 185.12) scale(0.6 1)" style="font-size:103.8443374633789px;fill:#dd1d1d;stroke:#fff;stroke-miterlimit:10;stroke-width:0.25px;font-family:BrushScriptMT, Brush Script MT">GOLE-THANGBALE</text></svg>