<svg id="Layer_1" data-name="Layer 1" xmlns="http://www.w3.org/2000/svg" xmlns:xlink="http://www.w3.org/1999/xlink" viewBox="0 0 1166.78 339.42"><defs><linearGradient id="Orchid" x1="94" y1="330.4" x2="1512.54" y2="330.4" gradientUnits="userSpaceOnUse"><stop offset="0" stop-color="#ff7bac"/><stop offset="0.22" stop-color="#ff7bac" stop-opacity="0.76"/><stop offset="0.6" stop-color="#ff7bac" stop-opacity="0.36"/><stop offset="0.87" stop-color="#ff7bac" stop-opacity="0.1"/><stop offset="1" stop-color="#ff7bac" stop-opacity="0"/></linearGradient></defs><path d="M340.81,171.58v262.6h-81V332H198V434.18H117V171.58h81v96.58h61.85V171.58Z" transform="translate(-117 -171.58)" style="fill:url(#Orchid)"/><path d="M467.59,171.58v262.6h-81V171.58Z" transform="translate(-117 -171.58)" style="fill:url(#Orchid)"/><path d="M800.41,171.58v262.6H725.23V246.42L676.42,434.18H625L574.28,246.42V434.18H513.59V171.58H619.41l38.27,139.48,36.53-139.48Z" transform="translate(-117 -171.58)" style="fill:url(#Orchid)"/><path d="M991.88,434.18,977,382.43H906.29l-15.83,51.75H824.71l81.45-262.6h85.62l82.74,262.6ZM920.06,325.1h42.69L941.4,248.93Z" transform="translate(-117 -171.58)" style="fill:url(#Orchid)"/><path d="M1283.78,369.74v64.44h-185V171.58h81V369.74Z" transform="translate(-117 -171.58)" style="fill:url(#Orchid)"/><text transform="translate(249 296.91) scale(0.88 1)" style="font-size:125.79639434814453px;fill:#999;font-family:BrushScriptMT, Brush Script MT">GOLE-THANGBALE</text></svg>